# xmcd
#
# Track frame offsets:
# 151
# 69690
# 145874
# 210590
# 275969
#
# Disc length: 4564 seconds
#
#
# Revision: 0
# Processed by: cddbd v1.5.2PL0 Copyright (c) Steve Scherf et al.
# Submitted via: FreeRIP 2.96 
#
DISCID=5211d205
DTITLE=Terry Pratchett - Monstrous Regiment CD2 of 4
DYEAR=2003
DGENRE=Audio Book
TTITLE0=03 Monstrous Regiment
TTITLE1=04 Monstrous Regiment
TTITLE2=05 Monstrous Regiment
TTITLE3=06 Monstrous Regiment
TTITLE4=07 Monstrous Regiment
EXTD=read by Tony Robinson
EXTT0=
EXTT1=
EXTT2=
EXTT3=
EXTT4=
PLAYORDER=
